<svg width="17" height="17" viewBox="0 0 17 17" fill="none" xmlns="http://www.w3.org/2000/svg">
<path d="M8.5 0C3.80573 0 0 3.80573 0 8.5C0 13.1943 3.80573 17 8.5 17C13.1943 17 17 13.1943 17 8.5C17 3.80573 13.1943 0 8.5 0ZM7.19893 10.6309C7.5718 11.0902 8.04553 11.3197 8.6207 11.3197C9.20947 11.3197 9.65883 11.1228 9.96823 10.7287C10.1394 10.5168 10.281 10.1989 10.3938 9.775H12.1003C11.953 10.6712 11.5767 11.3999 10.9721 11.9615C10.3666 12.5228 9.59197 12.8035 8.6462 12.8035C7.47632 12.8035 6.55662 12.4244 5.88767 11.6657C5.21815 10.9038 4.88325 9.85858 4.88325 8.53117C4.88325 7.0958 5.26405 5.98938 6.02537 5.21248C6.6878 4.5356 7.53015 4.1973 8.5527 4.1973C9.9212 4.1973 10.9216 4.65092 11.5543 5.55843C11.904 6.06787 12.0915 6.579 12.117 7.09212H10.3992C10.2895 6.69772 10.1496 6.40078 9.97872 6.1999C9.67272 5.8429 9.21882 5.66412 8.61787 5.66412C8.00587 5.66412 7.52335 5.91628 7.16975 6.42005C6.81672 6.92382 6.6402 7.63697 6.6402 8.55893C6.6402 9.4809 6.82663 10.1714 7.19893 10.6309Z" fill="white"/>
</svg>
