<svg width="65" height="63" viewBox="0 0 65 63" fill="none" xmlns="http://www.w3.org/2000/svg">
<g filter="url(#filter0_dd)">
<path d="M32.4923 18.3294C27.2591 18.3294 22.9885 22.4503 22.9885 27.5C22.9885 32.5497 27.2591 36.6706 32.4923 36.6706C37.7255 36.6706 41.9962 32.5497 41.9962 27.5C41.9962 22.4503 37.7255 18.3294 32.4923 18.3294ZM60.9968 27.5C60.9968 23.7024 61.0325 19.9393 60.8114 16.1486C60.5904 11.7456 59.5495 7.83796 56.2128 4.61829C52.869 1.39173 48.8264 0.394186 44.2634 0.180917C40.3279 -0.032352 36.4279 0.00204631 32.4995 0.00204631C28.5639 0.00204631 24.6639 -0.032352 20.7355 0.180917C16.1725 0.394186 12.1228 1.39861 8.78614 4.61829C5.44232 7.84484 4.40851 11.7456 4.18749 16.1486C3.96647 19.9461 4.00212 23.7093 4.00212 27.5C4.00212 31.2907 3.96647 35.0607 4.18749 38.8514C4.40851 43.2544 5.44945 47.162 8.78614 50.3817C12.13 53.6083 16.1725 54.6058 20.7355 54.8191C24.6711 55.0323 28.571 54.998 32.4995 54.998C36.4351 54.998 40.335 55.0323 44.2634 54.8191C48.8264 54.6058 52.8761 53.6014 56.2128 50.3817C59.5566 47.1551 60.5904 43.2544 60.8114 38.8514C61.0396 35.0607 60.9968 31.2976 60.9968 27.5ZM32.4923 41.6102C24.4001 41.6102 17.8694 35.3084 17.8694 27.5C17.8694 19.6916 24.4001 13.3898 32.4923 13.3898C40.5845 13.3898 47.1153 19.6916 47.1153 27.5C47.1153 35.3084 40.5845 41.6102 32.4923 41.6102ZM47.7142 16.1073C45.8248 16.1073 44.2991 14.6351 44.2991 12.812C44.2991 10.9888 45.8248 9.5166 47.7142 9.5166C49.6036 9.5166 51.1293 10.9888 51.1293 12.812C51.1299 13.2449 51.0419 13.6736 50.8705 14.0737C50.6991 14.4737 50.4476 14.8372 50.1303 15.1433C49.8131 15.4494 49.4364 15.6922 49.0218 15.8576C48.6072 16.023 48.1629 16.1078 47.7142 16.1073Z" fill="white"/>
</g>
<defs>
<filter id="filter0_dd" x="0" y="0" width="65" height="63" filterUnits="userSpaceOnUse" color-interpolation-filters="sRGB">
<feFlood flood-opacity="0" result="BackgroundImageFix"/>
<feColorMatrix in="SourceAlpha" type="matrix" values="0 0 0 0 0 0 0 0 0 0 0 0 0 0 0 0 0 0 127 0"/>
<feOffset dy="4"/>
<feGaussianBlur stdDeviation="2"/>
<feColorMatrix type="matrix" values="0 0 0 0 0 0 0 0 0 0 0 0 0 0 0 0 0 0 0.25 0"/>
<feBlend mode="normal" in2="BackgroundImageFix" result="effect1_dropShadow"/>
<feColorMatrix in="SourceAlpha" type="matrix" values="0 0 0 0 0 0 0 0 0 0 0 0 0 0 0 0 0 0 127 0"/>
<feOffset dy="4"/>
<feGaussianBlur stdDeviation="2"/>
<feColorMatrix type="matrix" values="0 0 0 0 0 0 0 0 0 0 0 0 0 0 0 0 0 0 0.25 0"/>
<feBlend mode="normal" in2="effect1_dropShadow" result="effect2_dropShadow"/>
<feBlend mode="normal" in="SourceGraphic" in2="effect2_dropShadow" result="shape"/>
</filter>
</defs>
</svg>
