<svg width="298" height="292" viewBox="0 0 298 292" fill="none" xmlns="http://www.w3.org/2000/svg">
<circle cx="121.453" cy="16.8338" r="12" transform="rotate(37.7203 121.453 16.8338)" fill="#FFD300"/>
<circle cx="86.5801" cy="61.9217" r="12" transform="rotate(37.7203 86.5801 61.9217)" fill="#FFD300"/>
<circle cx="51.707" cy="107.008" r="12" transform="rotate(37.7203 51.707 107.008)" fill="#FFD300"/>
<circle cx="16.834" cy="152.095" r="12" transform="rotate(37.7203 16.834 152.095)" fill="#FFD300"/>
<circle cx="159.585" cy="46.6482" r="12" transform="rotate(37.7203 159.585 46.6482)" fill="#FFD300"/>
<circle cx="124.712" cy="91.7361" r="12" transform="rotate(37.7203 124.712 91.7361)" fill="#FFD300"/>
<circle cx="89.8389" cy="136.822" r="12" transform="rotate(37.7203 89.8389 136.822)" fill="#FFD300"/>
<circle cx="54.9658" cy="181.91" r="12" transform="rotate(37.7203 54.9658 181.91)" fill="#FFD300"/>
<circle cx="195.017" cy="73.7322" r="12" transform="rotate(37.7203 195.017 73.7322)" fill="#FFD300"/>
<circle cx="160.144" cy="118.82" r="12" transform="rotate(37.7203 160.144 118.82)" fill="#FFD300"/>
<circle cx="125.271" cy="163.906" r="12" transform="rotate(37.7203 125.271 163.906)" fill="#FFD300"/>
<circle cx="90.3975" cy="208.994" r="12" transform="rotate(37.7203 90.3975 208.994)" fill="#FFD300"/>
<circle cx="237.731" cy="106.769" r="12" transform="rotate(37.7203 237.731 106.769)" fill="#FFD300"/>
<circle cx="202.858" cy="151.857" r="12" transform="rotate(37.7203 202.858 151.857)" fill="#FFD300"/>
<circle cx="167.985" cy="196.943" r="12" transform="rotate(37.7203 167.985 196.943)" fill="#FFD300"/>
<circle cx="133.112" cy="242.031" r="12" transform="rotate(37.7203 133.112 242.031)" fill="#FFD300"/>
<circle cx="280.445" cy="139.806" r="12" transform="rotate(37.7203 280.445 139.806)" fill="#FFD300"/>
<circle cx="245.572" cy="184.894" r="12" transform="rotate(37.7203 245.572 184.894)" fill="#FFD300"/>
<circle cx="210.699" cy="229.98" r="12" transform="rotate(37.7203 210.699 229.98)" fill="#FFD300"/>
<circle cx="175.826" cy="275.068" r="12" transform="rotate(37.7203 175.826 275.068)" fill="#FFD300"/>
</svg>
