<svg width="166" height="232" viewBox="0 0 166 232" fill="none" xmlns="http://www.w3.org/2000/svg">
<path d="M19.2383 134.1C19.2383 129.5 20.9383 123.7 24.3383 116.7C27.7383 109.7 32.1383 103.6 37.5383 98.4C42.9383 93.2 48.5383 90.6 54.3383 90.6C58.7383 90.6 62.2383 91.6 64.8383 93.6C67.4383 95.4 68.7383 98.4 68.7383 102.6C68.7383 105.8 67.9383 108.1 66.3383 109.5C64.7383 110.7 62.9383 111.6 60.9383 112.2C59.1383 112.8 57.8383 113.3 57.0383 113.7C51.4383 116.7 48.6383 120.7 48.6383 125.7C48.6383 127.9 49.6383 129.9 51.6383 131.7C53.8383 133.3 56.6383 134.1 60.0383 134.1C63.4383 134.1 66.2383 133.4 68.4383 132C70.8383 133 72.6383 134.3 73.8383 135.9C75.2383 137.5 75.9383 139.9 75.9383 143.1C75.9383 147.1 74.4383 150.9 71.4383 154.5C68.4383 157.9 64.7383 160.7 60.3383 162.9C55.9383 164.9 51.6383 165.9 47.4383 165.9C38.6383 165.9 31.7383 163.2 26.7383 157.8C21.7383 152.2 19.2383 144.3 19.2383 134.1ZM85.5383 134.1C85.5383 129.5 87.2383 123.7 90.6383 116.7C94.0383 109.7 98.4383 103.6 103.838 98.4C109.238 93.2 114.838 90.6 120.638 90.6C125.038 90.6 128.538 91.6 131.138 93.6C133.738 95.4 135.038 98.4 135.038 102.6C135.038 105.8 134.238 108.1 132.638 109.5C131.038 110.7 129.238 111.6 127.238 112.2C125.438 112.8 124.138 113.3 123.338 113.7C117.738 116.7 114.938 120.7 114.938 125.7C114.938 127.9 115.938 129.9 117.938 131.7C120.138 133.3 122.938 134.1 126.338 134.1C129.738 134.1 132.538 133.4 134.738 132C137.138 133 138.938 134.3 140.138 135.9C141.538 137.5 142.238 139.9 142.238 143.1C142.238 147.1 140.738 150.9 137.738 154.5C134.738 157.9 131.038 160.7 126.638 162.9C122.238 164.9 117.938 165.9 113.738 165.9C104.938 165.9 98.0383 163.2 93.0383 157.8C88.0383 152.2 85.5383 144.3 85.5383 134.1Z" fill="#FF4646"/>
</svg>
