<svg width="64" height="64" viewBox="0 0 64 64" fill="none" xmlns="http://www.w3.org/2000/svg">
<g filter="url(#filter0_dd)">
<path d="M44.824 33.5598C44.1222 33.2045 40.7045 31.5368 40.0657 31.2988C39.427 31.0713 38.9632 30.9522 38.4977 31.654C38.0427 32.3382 36.7022 33.9045 36.2927 34.3613C35.8832 34.818 35.4807 34.853 34.7895 34.5433C34.0877 34.188 31.846 33.4582 29.1842 31.0712C27.1052 29.2215 25.721 26.943 25.3098 26.2412C24.9003 25.5482 25.2642 25.1563 25.6107 24.8098C25.9292 24.4913 26.3125 24.0083 26.6678 23.5883C27.0055 23.1683 27.114 22.8865 27.3607 22.4315C27.5882 21.9397 27.471 21.5565 27.2977 21.21C27.1245 20.8635 25.7297 17.4283 25.147 16.0598C24.5905 14.7018 24.0077 14.875 23.579 14.875C23.1782 14.8383 22.7128 14.8383 22.249 14.8383C21.7853 14.8383 21.0275 15.0115 20.3887 15.6765C19.75 16.3783 17.9457 18.0548 17.9457 21.4463C17.9457 24.8465 20.443 28.1365 20.7895 28.6282C21.1447 29.0832 25.7018 36.0832 32.693 39.0915C34.3607 39.7932 35.6557 40.2133 36.6672 40.5598C38.335 41.0883 39.8575 41.0147 41.0598 40.8415C42.3898 40.6227 45.1792 39.1545 45.7637 37.5148C46.357 35.8645 46.357 34.4977 46.1837 34.188C46.0105 33.8695 45.5555 33.6962 44.8537 33.3865L44.824 33.5598ZM32.1453 50.75H32.1085C27.9698 50.75 23.8783 49.6282 20.3048 47.5317L19.4665 47.0312L10.7165 49.3098L13.0685 40.796L12.5033 39.921C10.1923 36.2466 8.96632 31.9942 8.9665 27.6535C8.9665 14.9485 19.3668 4.585 32.1628 4.585C38.3613 4.585 44.1765 7 48.5515 11.375C50.7097 13.5075 52.4217 16.0485 53.5875 18.8497C54.7532 21.6509 55.3495 24.6562 55.3415 27.6902C55.324 40.3865 44.9325 50.75 32.154 50.75H32.1453ZM51.8782 8.04825C46.5547 2.90675 39.5548 0 32.1085 0C16.7505 0 4.245 12.4512 4.23625 27.7533C4.23625 32.6393 5.512 37.4062 7.955 41.6255L4 56L18.784 52.1448C22.8795 54.3528 27.4574 55.5143 32.1102 55.5258H32.119C47.4858 55.5258 59.9913 43.0745 60 27.762C60 20.3525 57.1108 13.3787 51.8433 8.1375L51.8782 8.04825Z" fill="white"/>
</g>
<defs>
<filter id="filter0_dd" x="0" y="0" width="64" height="64" filterUnits="userSpaceOnUse" color-interpolation-filters="sRGB">
<feFlood flood-opacity="0" result="BackgroundImageFix"/>
<feColorMatrix in="SourceAlpha" type="matrix" values="0 0 0 0 0 0 0 0 0 0 0 0 0 0 0 0 0 0 127 0"/>
<feOffset dy="4"/>
<feGaussianBlur stdDeviation="2"/>
<feColorMatrix type="matrix" values="0 0 0 0 0 0 0 0 0 0 0 0 0 0 0 0 0 0 0.25 0"/>
<feBlend mode="normal" in2="BackgroundImageFix" result="effect1_dropShadow"/>
<feColorMatrix in="SourceAlpha" type="matrix" values="0 0 0 0 0 0 0 0 0 0 0 0 0 0 0 0 0 0 127 0"/>
<feOffset dy="4"/>
<feGaussianBlur stdDeviation="2"/>
<feColorMatrix type="matrix" values="0 0 0 0 0 0 0 0 0 0 0 0 0 0 0 0 0 0 0.25 0"/>
<feBlend mode="normal" in2="effect1_dropShadow" result="effect2_dropShadow"/>
<feBlend mode="normal" in="SourceGraphic" in2="effect2_dropShadow" result="shape"/>
</filter>
</defs>
</svg>
